<svg xmlns="http://www.w3.org/2000/svg" xmlns:xlink="http://www.w3.org/1999/xlink" width="750" zoomAndPan="magnify" viewBox="0 0 562.5 262.499992" height="350" preserveAspectRatio="xMidYMid meet" version="1.0"><defs><g/></defs><g fill="#ff8d55" fill-opacity="0.4"><g transform="translate(-5.532221, 125.060634)"><g><path d="M 63.382812 -21.546875 C 59.324219 -16.8125 53.332031 -13.914062 46.28125 -13.914062 C 32.65625 -13.914062 22.996094 -25.023438 22.996094 -38.648438 C 22.996094 -52.269531 32.65625 -63.382812 46.28125 -63.382812 C 53.332031 -63.382812 59.324219 -60.484375 63.382812 -55.75 L 74.300781 -66.570312 C 67.148438 -73.71875 57.199219 -78.164062 46.28125 -78.164062 C 24.445312 -78.164062 6.761719 -60.484375 6.761719 -38.648438 C 6.761719 -16.8125 24.445312 0.871094 46.28125 0.871094 C 57.199219 0.871094 67.148438 -3.574219 74.300781 -10.726562 Z M 63.382812 -21.546875 "/></g></g></g><g fill="#ff8d55" fill-opacity="0.4"><g transform="translate(75.524929, 125.060634)"><g><path d="M 52.367188 0 L 67.441406 0 L 44.734375 -77.101562 L 44.734375 -77.296875 L 29.566406 -77.296875 L 6.761719 0 L 21.933594 0 L 27.632812 -19.226562 L 46.667969 -19.226562 Z M 31.882812 -33.625 L 37.199219 -51.59375 L 42.414062 -33.625 Z M 31.882812 -33.625 "/></g></g></g><g fill="#ff8d55" fill-opacity="0.4"><g transform="translate(149.722657, 125.060634)"><g><path d="M 52.65625 -77.296875 L 52.65625 -25.121094 L 22.609375 -77.296875 L 6.761719 -77.296875 L 6.761719 0 L 21.257812 0 L 21.257812 -48.40625 L 49.082031 0 L 67.148438 0 L 67.148438 -77.296875 Z M 52.65625 -77.296875 "/></g></g></g><g fill="#ff8d55" fill-opacity="0.4"><g transform="translate(223.630558, 125.060634)"><g><path d="M 64.832031 -77.296875 L 6.761719 -77.296875 L 6.761719 -62.898438 L 28.597656 -62.898438 L 28.597656 0 L 42.996094 0 L 42.996094 -62.898438 L 64.832031 -62.898438 Z M 64.832031 -77.296875 "/></g></g></g><g fill="#ff8d55" fill-opacity="0.4"><g transform="translate(295.219767, 125.060634)"><g><path d="M 6.761719 -77.296875 L 21.257812 -77.296875 L 21.257812 -0.289062 L 6.761719 -0.289062 Z M 6.761719 -77.296875 "/></g></g></g><g fill="#ff8d55" fill-opacity="0.4"><g transform="translate(323.237141, 125.060634)"><g><path d="M 52.65625 -77.296875 L 52.65625 -25.121094 L 22.609375 -77.296875 L 6.761719 -77.296875 L 6.761719 0 L 21.257812 0 L 21.257812 -48.40625 L 49.082031 0 L 67.148438 0 L 67.148438 -77.296875 Z M 52.65625 -77.296875 "/></g></g></g><g fill="#ff8d55" fill-opacity="0.4"><g transform="translate(397.145027, 125.060634)"><g><path d="M 52.65625 -76.714844 L 52.65625 -41.449219 L 21.257812 -41.449219 L 21.257812 -76.714844 L 6.761719 -76.714844 L 6.761719 0.675781 L 21.257812 0.675781 L 21.257812 -27.054688 L 52.65625 -27.054688 L 52.65625 0.675781 L 67.054688 0.675781 L 67.054688 -76.714844 Z M 52.65625 -76.714844 "/></g></g></g><g fill="#ff8d55" fill-opacity="0.4"><g transform="translate(470.956319, 125.060634)"><g><path d="M 42.898438 -78.261719 C 21.0625 -78.261719 3.382812 -60.582031 3.382812 -38.746094 C 3.382812 -16.910156 21.0625 0.773438 42.898438 0.773438 C 64.734375 0.773438 82.417969 -16.910156 82.417969 -38.746094 C 82.417969 -60.582031 64.734375 -78.261719 42.898438 -78.261719 Z M 42.898438 -63.480469 C 56.617188 -63.480469 66.28125 -52.367188 66.28125 -38.746094 C 66.28125 -25.121094 56.617188 -14.011719 42.898438 -14.011719 C 29.277344 -14.011719 19.613281 -25.121094 19.613281 -38.746094 C 19.613281 -52.367188 29.277344 -63.480469 42.898438 -63.480469 Z M 42.898438 -63.480469 "/></g></g></g><g fill="#e2a165" fill-opacity="1"><g transform="translate(0.105594, 122.896481)"><g><path d="M 63.382812 -21.546875 C 59.324219 -16.8125 53.332031 -13.914062 46.28125 -13.914062 C 32.65625 -13.914062 22.996094 -25.023438 22.996094 -38.648438 C 22.996094 -52.269531 32.65625 -63.382812 46.28125 -63.382812 C 53.332031 -63.382812 59.324219 -60.484375 63.382812 -55.75 L 74.300781 -66.570312 C 67.148438 -73.71875 57.199219 -78.164062 46.28125 -78.164062 C 24.445312 -78.164062 6.761719 -60.484375 6.761719 -38.648438 C 6.761719 -16.8125 24.445312 0.871094 46.28125 0.871094 C 57.199219 0.871094 67.148438 -3.574219 74.300781 -10.726562 Z M 63.382812 -21.546875 "/></g></g></g><g fill="#e2a165" fill-opacity="1"><g transform="translate(81.162745, 122.896481)"><g><path d="M 52.367188 0 L 67.441406 0 L 44.734375 -77.101562 L 44.734375 -77.296875 L 29.566406 -77.296875 L 6.761719 0 L 21.933594 0 L 27.632812 -19.226562 L 46.667969 -19.226562 Z M 31.882812 -33.625 L 37.199219 -51.59375 L 42.414062 -33.625 Z M 31.882812 -33.625 "/></g></g></g><g fill="#e2a165" fill-opacity="1"><g transform="translate(155.360473, 122.896481)"><g><path d="M 52.65625 -77.296875 L 52.65625 -25.121094 L 22.609375 -77.296875 L 6.761719 -77.296875 L 6.761719 0 L 21.257812 0 L 21.257812 -48.40625 L 49.082031 0 L 67.148438 0 L 67.148438 -77.296875 Z M 52.65625 -77.296875 "/></g></g></g><g fill="#e2a165" fill-opacity="1"><g transform="translate(229.268374, 122.896481)"><g><path d="M 64.832031 -77.296875 L 6.761719 -77.296875 L 6.761719 -62.898438 L 28.597656 -62.898438 L 28.597656 0 L 42.996094 0 L 42.996094 -62.898438 L 64.832031 -62.898438 Z M 64.832031 -77.296875 "/></g></g></g><g fill="#e2a165" fill-opacity="1"><g transform="translate(300.857583, 122.896481)"><g><path d="M 6.761719 -77.296875 L 21.257812 -77.296875 L 21.257812 -0.289062 L 6.761719 -0.289062 Z M 6.761719 -77.296875 "/></g></g></g><g fill="#e2a165" fill-opacity="1"><g transform="translate(328.874957, 122.896481)"><g><path d="M 52.65625 -77.296875 L 52.65625 -25.121094 L 22.609375 -77.296875 L 6.761719 -77.296875 L 6.761719 0 L 21.257812 0 L 21.257812 -48.40625 L 49.082031 0 L 67.148438 0 L 67.148438 -77.296875 Z M 52.65625 -77.296875 "/></g></g></g><g fill="#e2a165" fill-opacity="1"><g transform="translate(402.782843, 122.896481)"><g><path d="M 52.65625 -76.714844 L 52.65625 -41.449219 L 21.257812 -41.449219 L 21.257812 -76.714844 L 6.761719 -76.714844 L 6.761719 0.675781 L 21.257812 0.675781 L 21.257812 -27.054688 L 52.65625 -27.054688 L 52.65625 0.675781 L 67.054688 0.675781 L 67.054688 -76.714844 Z M 52.65625 -76.714844 "/></g></g></g><g fill="#e2a165" fill-opacity="1"><g transform="translate(476.594135, 122.896481)"><g><path d="M 42.898438 -78.261719 C 21.0625 -78.261719 3.382812 -60.582031 3.382812 -38.746094 C 3.382812 -16.910156 21.0625 0.773438 42.898438 0.773438 C 64.734375 0.773438 82.417969 -16.910156 82.417969 -38.746094 C 82.417969 -60.582031 64.734375 -78.261719 42.898438 -78.261719 Z M 42.898438 -63.480469 C 56.617188 -63.480469 66.28125 -52.367188 66.28125 -38.746094 C 66.28125 -25.121094 56.617188 -14.011719 42.898438 -14.011719 C 29.277344 -14.011719 19.613281 -25.121094 19.613281 -38.746094 C 19.613281 -52.367188 29.277344 -63.480469 42.898438 -63.480469 Z M 42.898438 -63.480469 "/></g></g></g><g fill="#ffffff" fill-opacity="0.4"><g transform="translate(32.616641, 218.631177)"><g><path d="M 32.078125 -77.296875 L 6.761719 -77.296875 L 6.761719 0 L 32.078125 0 C 52.464844 0 66.960938 -17.296875 66.960938 -38.648438 C 66.960938 -60.003906 51.886719 -77.296875 32.078125 -77.296875 Z M 32.078125 -62.902344 C 43.578125 -62.902344 52.5625 -52.273438 52.5625 -38.648438 C 52.5625 -31.691406 50.4375 -25.410156 46.378906 -20.871094 C 43.769531 -17.875 39.226562 -14.398438 32.078125 -14.398438 L 21.160156 -14.398438 L 21.160156 -62.902344 Z M 32.078125 -62.902344 "/></g></g></g><g fill="#ffffff" fill-opacity="0.4"><g transform="translate(106.335298, 218.631177)"><g><path d="M 52.367188 0 L 67.441406 0 L 44.734375 -77.105469 L 44.734375 -77.296875 L 29.566406 -77.296875 L 6.761719 0 L 21.933594 0 L 27.632812 -19.226562 L 46.667969 -19.226562 Z M 31.886719 -33.625 L 37.199219 -51.597656 L 42.417969 -33.625 Z M 31.886719 -33.625 "/></g></g></g><g fill="#ffffff" fill-opacity="0.4"><g transform="translate(180.537034, 218.631177)"><g/></g></g><g fill="#ffffff" fill-opacity="0.4"><g transform="translate(209.522083, 218.631177)"><g><path d="M 38.84375 0.964844 L 40.582031 0.964844 C 57.199219 0.871094 66.667969 -9.953125 67.34375 -20.675781 C 68.117188 -31.886719 59.617188 -44.445312 39.132812 -47.054688 L 38.9375 -47.054688 C 31.5 -47.925781 23.769531 -51.597656 24.15625 -57.007812 C 24.445312 -60.871094 30.242188 -64.445312 40.773438 -63.964844 L 41.0625 -63.964844 C 46.863281 -63.964844 53.820312 -61.160156 57.394531 -58.554688 L 65.703125 -70.148438 C 60.195312 -74.109375 50.535156 -78.167969 41.257812 -78.167969 C 20.773438 -79.230469 10.820312 -68.792969 9.953125 -58.167969 C 9.46875 -51.984375 12.078125 -45.894531 17.101562 -41.257812 C 22.03125 -36.714844 29.082031 -33.816406 37.394531 -32.949219 C 48.699219 -31.402344 53.433594 -26.183594 53.140625 -21.644531 C 52.851562 -17.488281 48.40625 -13.332031 40.386719 -13.332031 L 39.90625 -13.332031 C 39.808594 -13.332031 29.277344 -12.753906 22.804688 -18.066406 C 21.160156 -19.324219 19.808594 -20.871094 18.550781 -22.707031 L 6.761719 -14.6875 C 8.695312 -11.789062 11.113281 -9.179688 13.816406 -6.957031 C 22.609375 0.191406 34.203125 0.964844 38.84375 0.964844 Z M 38.84375 0.964844 "/></g></g></g><g fill="#ffffff" fill-opacity="0.4"><g transform="translate(283.627191, 218.631177)"><g><path d="M 42.898438 -78.265625 C 21.0625 -78.265625 3.382812 -60.582031 3.382812 -38.746094 C 3.382812 -16.910156 21.0625 0.773438 42.898438 0.773438 C 64.738281 0.773438 82.417969 -16.910156 82.417969 -38.746094 C 82.417969 -60.582031 64.738281 -78.265625 42.898438 -78.265625 Z M 42.898438 -63.480469 C 56.621094 -63.480469 66.28125 -52.367188 66.28125 -38.746094 C 66.28125 -25.121094 56.621094 -14.011719 42.898438 -14.011719 C 29.277344 -14.011719 19.613281 -25.121094 19.613281 -38.746094 C 19.613281 -52.367188 29.277344 -63.480469 42.898438 -63.480469 Z M 42.898438 -63.480469 "/></g></g></g><g fill="#ffffff" fill-opacity="0.4"><g transform="translate(369.422934, 218.631177)"><g><path d="M 52.367188 -77.296875 L 37.488281 -26.859375 L 22.609375 -77.296875 L 6.761719 -77.296875 L 29.566406 0 L 45.414062 0 L 68.214844 -77.296875 Z M 52.367188 -77.296875 "/></g></g></g><g fill="#ffffff" fill-opacity="0.4"><g transform="translate(444.397598, 218.631177)"><g><path d="M 52.367188 0 L 67.441406 0 L 44.734375 -77.105469 L 44.734375 -77.296875 L 29.566406 -77.296875 L 6.761719 0 L 21.933594 0 L 27.632812 -19.226562 L 46.667969 -19.226562 Z M 31.886719 -33.625 L 37.199219 -51.597656 L 42.417969 -33.625 Z M 31.886719 -33.625 "/></g></g></g><g fill="#7ed957" fill-opacity="1"><g transform="translate(38.254456, 216.467024)"><g><path d="M 32.078125 -77.296875 L 6.761719 -77.296875 L 6.761719 0 L 32.078125 0 C 52.464844 0 66.960938 -17.296875 66.960938 -38.648438 C 66.960938 -60.003906 51.886719 -77.296875 32.078125 -77.296875 Z M 32.078125 -62.902344 C 43.578125 -62.902344 52.5625 -52.273438 52.5625 -38.648438 C 52.5625 -31.691406 50.4375 -25.410156 46.378906 -20.871094 C 43.769531 -17.875 39.226562 -14.398438 32.078125 -14.398438 L 21.160156 -14.398438 L 21.160156 -62.902344 Z M 32.078125 -62.902344 "/></g></g></g><g fill="#7ed957" fill-opacity="1"><g transform="translate(111.973113, 216.467024)"><g><path d="M 52.367188 0 L 67.441406 0 L 44.734375 -77.105469 L 44.734375 -77.296875 L 29.566406 -77.296875 L 6.761719 0 L 21.933594 0 L 27.632812 -19.226562 L 46.667969 -19.226562 Z M 31.886719 -33.625 L 37.199219 -51.597656 L 42.417969 -33.625 Z M 31.886719 -33.625 "/></g></g></g><g fill="#7ed957" fill-opacity="1"><g transform="translate(186.17485, 216.467024)"><g/></g></g><g fill="#7ed957" fill-opacity="1"><g transform="translate(215.159898, 216.467024)"><g><path d="M 38.84375 0.964844 L 40.582031 0.964844 C 57.199219 0.871094 66.667969 -9.953125 67.34375 -20.675781 C 68.117188 -31.886719 59.617188 -44.445312 39.132812 -47.054688 L 38.9375 -47.054688 C 31.5 -47.925781 23.769531 -51.597656 24.15625 -57.007812 C 24.445312 -60.871094 30.242188 -64.445312 40.773438 -63.964844 L 41.0625 -63.964844 C 46.863281 -63.964844 53.820312 -61.160156 57.394531 -58.554688 L 65.703125 -70.148438 C 60.195312 -74.109375 50.535156 -78.167969 41.257812 -78.167969 C 20.773438 -79.230469 10.820312 -68.792969 9.953125 -58.167969 C 9.46875 -51.984375 12.078125 -45.894531 17.101562 -41.257812 C 22.03125 -36.714844 29.082031 -33.816406 37.394531 -32.949219 C 48.699219 -31.402344 53.433594 -26.183594 53.140625 -21.644531 C 52.851562 -17.488281 48.40625 -13.332031 40.386719 -13.332031 L 39.90625 -13.332031 C 39.808594 -13.332031 29.277344 -12.753906 22.804688 -18.066406 C 21.160156 -19.324219 19.808594 -20.871094 18.550781 -22.707031 L 6.761719 -14.6875 C 8.695312 -11.789062 11.113281 -9.179688 13.816406 -6.957031 C 22.609375 0.191406 34.203125 0.964844 38.84375 0.964844 Z M 38.84375 0.964844 "/></g></g></g><g fill="#7ed957" fill-opacity="1"><g transform="translate(289.265007, 216.467024)"><g><path d="M 42.898438 -78.265625 C 21.0625 -78.265625 3.382812 -60.582031 3.382812 -38.746094 C 3.382812 -16.910156 21.0625 0.773438 42.898438 0.773438 C 64.738281 0.773438 82.417969 -16.910156 82.417969 -38.746094 C 82.417969 -60.582031 64.738281 -78.265625 42.898438 -78.265625 Z M 42.898438 -63.480469 C 56.621094 -63.480469 66.28125 -52.367188 66.28125 -38.746094 C 66.28125 -25.121094 56.621094 -14.011719 42.898438 -14.011719 C 29.277344 -14.011719 19.613281 -25.121094 19.613281 -38.746094 C 19.613281 -52.367188 29.277344 -63.480469 42.898438 -63.480469 Z M 42.898438 -63.480469 "/></g></g></g><g fill="#7ed957" fill-opacity="1"><g transform="translate(375.060749, 216.467024)"><g><path d="M 52.367188 -77.296875 L 37.488281 -26.859375 L 22.609375 -77.296875 L 6.761719 -77.296875 L 29.566406 0 L 45.414062 0 L 68.214844 -77.296875 Z M 52.367188 -77.296875 "/></g></g></g><g fill="#7ed957" fill-opacity="1"><g transform="translate(450.035413, 216.467024)"><g><path d="M 52.367188 0 L 67.441406 0 L 44.734375 -77.105469 L 44.734375 -77.296875 L 29.566406 -77.296875 L 6.761719 0 L 21.933594 0 L 27.632812 -19.226562 L 46.667969 -19.226562 Z M 31.886719 -33.625 L 37.199219 -51.597656 L 42.417969 -33.625 Z M 31.886719 -33.625 "/></g></g></g></svg>